<?xml version="1.0" encoding="UTF-8"?> <svg xmlns="http://www.w3.org/2000/svg" width="168" height="59" viewBox="0 0 168 59" fill="none"> <path d="M4 25.4531C1.79086 25.4531 0 27.244 0 29.4531C0 31.6623 1.79086 33.4531 4 33.4531V25.4531ZM166.828 32.2816C168.391 30.7195 168.391 28.1868 166.828 26.6247L141.373 1.16885C139.81 -0.393244 137.278 -0.393244 135.716 1.16885C134.154 2.73095 134.154 5.26361 135.716 6.82571L158.343 29.4531L135.716 52.0805C134.154 53.6426 134.154 56.1753 135.716 57.7374C137.278 59.2995 139.81 59.2995 141.373 57.7374L166.828 32.2816ZM4 33.4531H164V25.4531H4V33.4531Z" fill="black"></path> </svg> 