<?xml version="1.0" encoding="UTF-8"?> <svg xmlns="http://www.w3.org/2000/svg" width="168" height="59" viewBox="0 0 168 59" fill="none"> <path d="M164 25.4531C166.209 25.4531 168 27.244 168 29.4531C168 31.6623 166.209 33.4531 164 33.4531V25.4531ZM1.17157 32.2816C-0.390518 30.7195 -0.390518 28.1868 1.17157 26.6247L26.6274 1.16885C28.1895 -0.393244 30.7222 -0.393244 32.2843 1.16885C33.8464 2.73095 33.8464 5.26361 32.2843 6.82571L9.65686 29.4531L32.2843 52.0805C33.8464 53.6426 33.8464 56.1753 32.2843 57.7374C30.7222 59.2995 28.1895 59.2995 26.6274 57.7374L1.17157 32.2816ZM164 33.4531H4V25.4531H164V33.4531Z" fill="black"></path> </svg> 