<?xml version="1.0" encoding="UTF-8"?> <svg xmlns="http://www.w3.org/2000/svg" width="1008" height="229" viewBox="0 0 1008 229" fill="none"> <path d="M256.564 53.9575L237.961 58.1334L240.049 55.476V168.987L237.961 166.329L256.564 170.125V178.288H208.16V170.125L226.572 166.329L224.484 168.987V55.476L226.952 58.3232L208.16 54.9065V46.7444L256.564 45.7953V53.9575Z" fill="white"></path> <path d="M272.51 178.288V170.125L289.594 166.329L287.316 169.176V87.5551L289.594 90.4023L272.51 86.7958V78.6337L299.085 77.305L301.173 95.907L299.085 95.1477C305.412 88.694 311.992 83.9485 318.826 80.9115C325.786 77.8744 332.366 76.3559 338.567 76.3559C346.918 76.3559 353.815 78.95 359.257 84.1384C364.825 89.2001 367.545 97.1092 367.419 107.865V169.176L365.521 166.519L382.224 170.125V178.288H337.997V170.125L354.511 166.519L352.233 169.366V111.092C352.233 103.247 350.462 97.4888 346.918 93.819C343.375 90.1492 338.63 88.3143 332.682 88.3143C328 88.3143 322.875 89.5798 317.307 92.1107C311.866 94.6416 306.487 98.5645 301.173 103.879L302.501 100.842V169.366L300.603 166.709L316.738 170.125V178.288H272.51ZM392.629 178.288V170.125L409.712 166.329L407.435 169.176V87.5551L409.712 90.4023L392.629 86.7958V78.6337L419.203 77.305L421.291 95.907L419.203 95.1477C425.53 88.694 432.111 83.9485 438.944 80.9115C445.904 77.8744 452.484 76.3559 458.685 76.3559C467.037 76.3559 473.934 78.95 479.375 84.1384C484.943 89.2001 487.664 97.1092 487.537 107.865V169.176L485.639 166.519L502.343 170.125V178.288H458.116V170.125L474.63 166.519L472.352 169.366V111.092C472.352 103.247 470.58 97.4888 467.037 93.819C463.494 90.1492 458.748 88.3143 452.801 88.3143C448.119 88.3143 442.994 89.5798 437.426 92.1107C431.984 94.6416 426.606 98.5645 421.291 103.879L422.62 100.842V169.366L420.722 166.709L436.856 170.125V178.288H392.629Z" fill="white"></path> <path d="M554.152 76.3559C568.072 76.3559 578.955 80.7217 586.801 89.4532C594.773 98.1848 598.759 110.523 598.759 126.468C598.759 137.224 596.798 146.651 592.875 154.75C589.079 162.723 583.637 168.923 576.551 173.352C569.464 177.781 560.922 179.996 550.925 179.996C537.258 179.996 526.565 175.757 518.846 167.278C511.127 158.673 507.267 146.335 507.267 130.264C507.267 119.128 509.102 109.574 512.772 101.602C516.568 93.5027 521.947 87.302 528.907 82.9995C535.993 78.5704 544.408 76.3559 554.152 76.3559ZM553.393 87.5551C543.649 87.5551 536.183 91.2249 530.995 98.5645C525.806 105.904 523.212 116.217 523.212 129.505C523.212 142.539 525.68 152.346 530.615 158.926C535.55 165.507 542.637 168.797 551.874 168.797C558.581 168.797 564.213 167.152 568.768 163.862C573.45 160.445 576.93 155.636 579.208 149.435C581.612 143.235 582.815 135.832 582.815 127.227C582.815 114.319 580.22 104.512 575.032 97.8052C569.97 90.9718 562.757 87.5551 553.393 87.5551Z" fill="white"></path> <path d="M660.903 45.7953C669.381 45.7953 677.164 47.124 684.25 49.7815C691.464 52.3124 697.727 56.2353 703.042 61.5501C708.357 66.7385 712.533 73.3821 715.57 81.4809C718.607 89.4532 720.126 98.9441 720.126 109.953C720.126 124.886 717.405 137.414 711.964 147.537C706.649 157.661 699.309 165.317 689.945 170.505C680.581 175.693 669.888 178.288 657.866 178.288H604.338V170.125L623.319 166.139L620.662 169.556V54.9065L623.319 58.5131L604.338 54.9065V46.7444L640.023 45.7953H660.903ZM658.435 166.709C664.256 166.709 669.824 165.76 675.139 163.862C680.454 161.963 685.263 158.926 689.565 154.75C693.868 150.448 697.221 144.753 699.626 137.667C702.157 130.454 703.422 121.659 703.422 111.282C703.422 101.032 702.22 92.4903 699.815 85.6569C697.411 78.6969 694.184 73.1922 690.135 69.1428C686.085 64.9668 681.53 61.993 676.468 60.2214C671.406 58.3232 666.091 57.3742 660.523 57.3742H633.38L636.227 54.5269V169.556L633.38 166.709H658.435Z" fill="white"></path> <path d="M779.763 76.3559C793.683 76.3559 804.566 80.7217 812.412 89.4532C820.384 98.1848 824.37 110.523 824.37 126.468C824.37 137.224 822.409 146.651 818.486 154.75C814.689 162.723 809.248 168.923 802.161 173.352C795.075 177.781 786.533 179.996 776.536 179.996C762.869 179.996 752.176 175.757 744.457 167.278C736.738 158.673 732.878 146.335 732.878 130.264C732.878 119.128 734.713 109.574 738.383 101.602C742.179 93.5027 747.557 87.302 754.517 82.9995C761.604 78.5704 770.019 76.3559 779.763 76.3559ZM779.004 87.5551C769.26 87.5551 761.794 91.2249 756.605 98.5645C751.417 105.904 748.823 116.217 748.823 129.505C748.823 142.539 751.29 152.346 756.226 158.926C761.161 165.507 768.247 168.797 777.485 168.797C784.192 168.797 789.823 167.152 794.379 163.862C799.061 160.445 802.541 155.636 804.819 149.435C807.223 143.235 808.425 135.832 808.425 127.227C808.425 114.319 805.831 104.512 800.643 97.8052C795.581 90.9718 788.368 87.5551 779.004 87.5551Z" fill="white"></path> <path d="M924.121 95.3376L922.033 95.7172C928.233 89.2634 934.814 84.4547 941.774 81.2911C948.734 78.0009 955.251 76.3559 961.325 76.3559C969.044 76.3559 975.498 78.95 980.686 84.1384C986.001 89.2001 988.659 97.0459 988.659 107.676V169.176L986.76 166.519L1003.46 170.125V178.288H959.427V170.125L975.561 166.519L973.473 169.366V111.092C973.473 103.247 971.765 97.4888 968.348 93.819C965.058 90.1492 960.755 88.3143 955.441 88.3143C950.885 88.3143 945.823 89.6431 940.255 92.3005C934.814 94.9579 929.436 99.0074 924.121 104.449L925.449 100.842C925.576 101.981 925.639 103.057 925.639 104.069C925.766 105.082 925.829 106.094 925.829 107.106V169.176L923.931 166.519L939.686 170.125V178.288H896.787V170.125L912.922 166.519L910.644 169.366V111.092C910.644 103.247 908.935 97.4888 905.519 93.819C902.229 90.1492 897.926 88.3143 892.611 88.3143C888.056 88.3143 883.057 89.5798 877.616 92.1107C872.174 94.6416 866.796 98.5645 861.481 103.879L862.81 101.032V169.366L860.912 166.709L876.666 170.125V178.288H832.819V170.125L849.902 166.329L847.624 169.176V87.5551L849.902 90.4023L832.819 86.7958V78.6337L859.393 77.305L861.481 95.907L859.393 95.1477C865.594 88.694 872.111 83.9485 878.944 80.9115C885.904 77.8744 892.485 76.3559 898.685 76.3559C904.506 76.3559 909.695 77.9377 914.25 81.1013C918.806 84.1384 922.096 88.8838 924.121 95.3376Z" fill="white"></path> <path fill-rule="evenodd" clip-rule="evenodd" d="M81.8849 109.335V126.063H81.483V128.045H3.5871L3.5871 103.714L42.0068 103.714L0.495819 62.2027L17.701 44.9976L57.5532 84.8498L57.5532 48.1668L81.8849 48.1668V109.182L81.9618 109.258L81.8849 109.335Z" fill="#2B7AF5"></path> <mask id="mask0_339_1036" style="mask-type:alpha" maskUnits="userSpaceOnUse" x="0" y="44" width="82" height="85"> <path fill-rule="evenodd" clip-rule="evenodd" d="M81.885 109.335V126.062H81.4829V128.045L3.58698 128.045L3.58698 103.714L42.0069 103.714L0.49585 62.2027L17.701 44.9976L57.5533 84.8498V48.1664L81.885 48.1664L81.885 109.182L81.9618 109.258L81.885 109.335Z" fill="#2B7AF5"></path> </mask> <g mask="url(#mask0_339_1036)"> <g opacity="0.26" filter="url(#filter0_f_339_1036)"> <path d="M51.4017 95.2886H94.315V150.277H51.4017V95.2886Z" fill="black"></path> </g> </g> <path fill-rule="evenodd" clip-rule="evenodd" d="M81.7509 143.406L127.711 189.366L144.916 172.161L100.885 128.13L135.312 128.13L135.312 103.798L57.4158 103.798L57.4158 128.13L57.4192 128.13L57.4191 182.124L81.7509 182.124L81.7509 143.406Z" fill="white"></path> <defs> <filter id="filter0_f_339_1036" x="30.9997" y="74.8866" width="83.7172" height="95.7923" filterUnits="userSpaceOnUse" color-interpolation-filters="sRGB"> <feFlood flood-opacity="0" result="BackgroundImageFix"></feFlood> <feBlend mode="normal" in="SourceGraphic" in2="BackgroundImageFix" result="shape"></feBlend> <feGaussianBlur stdDeviation="10.201" result="effect1_foregroundBlur_339_1036"></feGaussianBlur> </filter> </defs> </svg> 