<?xml version="1.0" encoding="UTF-8"?> <svg xmlns="http://www.w3.org/2000/svg" xmlns:xlink="http://www.w3.org/1999/xlink" viewBox="0 0 297.94 70.04" style="enable-background:new 0 0 297.94 70.04;" xml:space="preserve"> <style>text{display:none}text:target{display:block}.st0{fill:url(#S1)}.o{opacity:0.1}.f{fill:url(#S2)}.fx{fill:url(#S3)}.st8{fill:url(#S9)}.st9{fill:url(#S0)}.txt{font-family:sans-serif;fill:#bfc5ce;font-size:0.6em}</style> <linearGradient id="S1" gradientUnits="userSpaceOnUse" x1="190.876" y1="64.3931" x2="202.3919" y2="44.4469" gradientTransform="matrix(1 0 0 -1 0 72.68)"> <stop offset="0" style="stop-color:#FFDD67"></stop> <stop offset="1" style="stop-color:#F19F00"></stop> </linearGradient> <linearGradient id="S2" gradientUnits="userSpaceOnUse" x1="275.469" y1="54.2523" x2="275.469" y2="18.5823" gradientTransform="matrix(1 0 0 -1 0 72.68)"> <stop offset="0" style="stop-color:#FAFBFC"></stop> <stop offset="0.5" style="stop-color:#E3E6EB"></stop> <stop offset="0.5" style="stop-color:#D5DAE2"></stop> <stop offset="1" style="stop-color:#C4CBD7"></stop> </linearGradient> <linearGradient id="S3" gradientUnits="userSpaceOnUse" x1="275.469" y1="54.2523" x2="275.469" y2="18.5823"> <stop offset="0.5" style="stop-color:#D5DAE2"></stop> <stop offset="1" style="stop-color:#C4CBD7"></stop> </linearGradient> <polygon class="f o" points="275.46,31.96 297.94,0 252.99,0"></polygon> <polygon class="st0" points="201.53,12.37 183.8,12.37 191.73,24.15 209.46,24.15"></polygon> <g> <polygon class="f" points="253.28,18.43 247.34,26.79 241.72,18.43 212.55,18.43 188.66,54.1 206.27,54.1 209.01,50.2 211.34,54.1 229.61,54.1 218.54,36.18 228.29,21.29 239.85,38.24 230.71,54.1 246.24,54.1 269.03,18.43"></polygon> <polygon class="f" points="94.94,18.43 85.97,18.43 72.98,18.43 64.01,18.43 64.01,30.43 72.98,30.43 72.98,54.1 85.97,54.1 85.97,30.43 94.94,30.43"></polygon> <polygon class="fx" points="230.29,18.43 212.85,18.43 200.73,36.18 218.29,36.18"></polygon> <path class="f" d="M43.18,18.43L30.96,54.1H45l0.9-3.96h9.42l0.9,3.96h14.04L58.04,18.43H43.18z M47.97,41.05l2.64-11.56 l2.64,11.56H47.97z"></path> <path class="f" d="M100.32,18.43L88.1,54.1h14.04l0.9-3.96h9.42l0.9,3.96h14.04l-12.22-35.67H100.32z M105.11,41.05l2.64-11.56 l2.64,11.56H105.11z"></path> <polygon class="f" points="141.79,18.75 128.8,18.75 128.8,54.1 152.88,54.1 152.88,42.1 141.79,42.1"></polygon> <path class="f" d="M172.97,17.3c-11.1,0-20.09,8.45-20.09,18.88s9,18.88,20.09,18.88c11.1,0,20.09-8.45,20.09-18.88 S184.07,17.3,172.97,17.3z M172.97,43.45c-3.47,0-6.28-3.25-6.28-7.27s2.81-7.27,6.28-7.27s6.28,3.25,6.28,7.27 S176.44,43.45,172.97,43.45z"></path> </g> <linearGradient id="S9" gradientUnits="userSpaceOnUse" x1="215.1389" y1="36.5" x2="215.1389" y2="18.58" gradientTransform="matrix(1 0 0 -1 0 72.68)"> <stop offset="0" style="stop-color:#EBEBEF"></stop> <stop offset="1" style="stop-color:#EBEBEF"></stop> </linearGradient> <polygon class="st8" points="229.61,54.1 218.54,36.18 200.66,36.18 211.34,54.1"></polygon> <linearGradient id="S0" gradientUnits="userSpaceOnUse" x1="19.217" y1="-48.3189" x2="19.217" y2="4.8366" gradientTransform="matrix(1 0 0 1 0 63.8651)"> <stop offset="0" style="stop-color:#FEDE69"></stop> <stop offset="0.39" style="stop-color:#F8C351"></stop> <stop offset="0.39" style="stop-color:#F6B120"></stop> <stop offset="0.6334" style="stop-color:#F3A220"></stop> <stop offset="1" style="stop-color:#EF9021"></stop> </linearGradient> <path class="st9" d="M18.18,36.34c2.49-4.31,7.3-6.64,12.45-5.81c1.16,0.17,2.16,0.5,3.15,1l4.65-13.77 c-1.83-0.66-3.65-1.33-5.64-1.66c-14.94-2.66-29.05,6.3-32.2,20.24c-0.07,0.33-0.1,0.48-0.17,0.83 c-2.66,14.44,7.47,28.38,22.73,31.2c1,0.17,1.83,0.33,2.82,0.33l4.98-14.6c-1.49,0.33-2.99,0.33-4.65,0 c-6.47-1.16-10.79-7.47-9.63-13.94C17.02,38.83,17.52,37.5,18.18,36.34z"></path> <text transform="matrix(1.006 0 0 1 36.85 69.05)" class="txt" id="ru">БЕСПЛАТНОЕ РЕКЛАМНОЕ ПРОСТРАНСТВО</text> <text transform="matrix(1.006 0 0 1 36.85 69.05)" class="txt" id="ua">БЕЗКОШТОВНИЙ РЕКЛАМНИЙ ПРОСТIР</text> <text transform="matrix(1.64 0 0 1 36.85 69.05)" class="txt" id="en">FREE ADVRETISING SPACE</text> <text transform="matrix(1.40 0 0 1 36.85 69.05)" class="txt" id="fr">ESPACE PUBLICITAIRE GRATUIT</text> <text transform="matrix(1.29 0 0 1 36.85 69.05)" class="txt" id="es">ESPACIO PUBLICITARIO GRATUITO</text> <text transform="matrix(1.116 0 0 1 36.85 69.05)" class="txt" id="ua">БЕЗКОШТОВНИЙ РЕКЛАМНИЙ ПРОСТІР</text> </svg> 