<?xml version="1.0" standalone="no"?>
<!DOCTYPE svg PUBLIC "-//W3C//DTD SVG 20010904//EN"
 "http://www.w3.org/TR/2001/REC-SVG-20010904/DTD/svg10.dtd">
<svg version="1.0" xmlns="http://www.w3.org/2000/svg"
 width="225.000000pt" height="225.000000pt" viewBox="0 0 225.000000 225.000000"
 preserveAspectRatio="xMidYMid meet">

<g transform="translate(0.000000,225.000000) scale(0.100000,-0.100000)"
fill="#000000" stroke="none">
<path d="M1682 1608 c-29 -29 -10 -56 170 -243 l183 -190 -979 -3 c-703 -1
-983 -5 -993 -13 -17 -15 -17 -53 0 -68 10 -8 290 -12 993 -13 l979 -3 -183
-190 c-118 -123 -182 -196 -182 -210 0 -25 18 -45 41 -45 15 0 489 480 489
495 0 16 -474 495 -489 495 -10 0 -22 -5 -29 -12z"/>
</g>
</svg>
